<?xml version="1.0" encoding="UTF-8" standalone="no"?>
<!DOCTYPE svg PUBLIC "-//W3C//DTD SVG 1.1//EN" "http://www.w3.org/Graphics/SVG/1.1/DTD/svg11.dtd">
<svg width="100%" height="100%" viewBox="0 0 1080 1080" version="1.1" xmlns="http://www.w3.org/2000/svg" xmlns:xlink="http://www.w3.org/1999/xlink" xml:space="preserve" xmlns:serif="http://www.serif.com/" style="fill-rule:evenodd;clip-rule:evenodd;stroke-linejoin:round;stroke-miterlimit:2;">
    <g transform="matrix(1.43018,0,0,1.43018,-379.16,-416.132)">
        <path d="M621.096,1017.59C438.126,1006.42 292.979,854.296 292.979,668.537C292.979,482.778 438.126,330.653 621.096,319.487L621.096,408.406C487.123,419.397 381.673,531.749 381.673,668.537C381.673,805.325 487.123,917.678 621.096,928.669L621.096,1017.59ZM664.276,319.487C847.246,330.653 992.394,482.778 992.394,668.537C992.394,854.296 847.246,1006.42 664.276,1017.59L664.276,928.669C798.249,917.678 903.7,805.325 903.7,668.537C903.7,531.749 798.249,419.397 664.276,408.406L664.276,319.487Z" style="fill:rgb(0,39,84);"/>
        <clipPath id="_clip1">
            <path d="M621.096,1017.59C438.126,1006.42 292.979,854.296 292.979,668.537C292.979,482.778 438.126,330.653 621.096,319.487L621.096,408.406C487.123,419.397 381.673,531.749 381.673,668.537C381.673,805.325 487.123,917.678 621.096,928.669L621.096,1017.59ZM664.276,319.487C847.246,330.653 992.394,482.778 992.394,668.537C992.394,854.296 847.246,1006.42 664.276,1017.59L664.276,928.669C798.249,917.678 903.7,805.325 903.7,668.537C903.7,531.749 798.249,419.397 664.276,408.406L664.276,319.487Z"/>
        </clipPath>
        <g clip-path="url(#_clip1)">
            <g transform="matrix(0.69921,0,0,0.69921,265.113,290.964)">
                <path d="M570.878,40.793C832.558,56.763 1040.15,274.331 1040.15,540C1040.15,805.669 832.558,1023.24 570.878,1039.21L570.878,912.036C762.484,896.317 913.298,735.632 913.298,540C913.298,344.368 762.484,183.683 570.878,167.964L570.878,40.793Z" style="fill:rgb(131,166,206);"/>
            </g>
            <g transform="matrix(0.69921,0,0,0.69921,265.113,290.964)">
                <path d="M509.122,1039.21C247.442,1023.24 39.854,805.669 39.854,540C39.854,274.331 247.442,56.763 509.122,40.793L509.122,167.964C317.516,183.683 166.702,344.368 166.702,540C166.702,735.632 317.516,896.317 509.122,912.036L509.122,1039.21Z" style="fill:rgb(0,39,84);"/>
            </g>
        </g>
    </g>
    <g transform="matrix(1,0,0,1,-55.8634,-56.7171)">
        <circle cx="596.863" cy="596.717" r="322.375" style="fill:rgb(59,112,172);"/>
    </g>
</svg>
